<?xml version="1.0" encoding="UTF-8" standalone="no"?>
<svg
   id="visual"
   viewBox="0 0 270 17"
   width="270"
   height="17"
   version="1.1"
   sodipodi:docname="wave1.svg"
   inkscape:version="1.2.1 (9c6d41e410, 2022-07-14)"
   xmlns:inkscape="http://www.inkscape.org/namespaces/inkscape"
   xmlns:sodipodi="http://sodipodi.sourceforge.net/DTD/sodipodi-0.dtd"
   xmlns="http://www.w3.org/2000/svg"
   xmlns:svg="http://www.w3.org/2000/svg">
  <defs
     id="defs9" />
  <sodipodi:namedview
     id="namedview7"
     pagecolor="#ffffff"
     bordercolor="#000000"
     borderopacity="0.25"
     inkscape:showpageshadow="2"
     inkscape:pageopacity="0.0"
     inkscape:pagecheckerboard="0"
     inkscape:deskcolor="#d1d1d1"
     showgrid="false"
     inkscape:zoom="8.8439099"
     inkscape:cx="234.96395"
     inkscape:cy="4.9751751"
     inkscape:window-width="1440"
     inkscape:window-height="837"
     inkscape:window-x="1912"
     inkscape:window-y="44"
     inkscape:window-maximized="1"
     inkscape:current-layer="visual" />
  <rect
     x="-270"
     y="-17"
     width="270"
     height="17"
     fill="#001621"
     id="rect2"
     style="fill:#000000;fill-opacity:1;stroke-width:0.0921954"
     transform="scale(-1)" />
  <path
     d="m 270,13.777459 -4.11,-0.31614 c -4.08,-0.32446 -12.91793,2.413335 -21.10793,2.671235 -8.19,0.26622 -15.79207,-1.939125 -23.92207,-1.731135 -8.16,0.20798 -16.26,-0.54077 -24.42,-0.74875 -8.13,-0.20799 -16.35,1.492577 -24.54,1.176437 -8.19,-0.32446 -16.41,-2.657307 -24.6,-3.547487 -8.19001,-0.89019 -16.41,-1.6888597 -24.6,-1.4975097 -8.19001,0.19135 -16.41001,1.3893497 -24.600009,1.7470897 -8.19001,0.35774 -16.40999,-0.10815 -24.53999,-0.69052 -8.16,-0.58236 -16.26,-1.2811897 -24.42,-1.5390997 -8.13002,-0.26622 -16.35,-0.0998 -24.54,0.69052 C 16.409971,10.782449 8.1899906,12.196759 4.1099906,12.903909 L 6.2555348e-7,13.611069 V -0.19925065 H 4.1099906 24.600001 h 24.54 24.42 24.53999 24.600009 24.6 24.6 24.54 24.42 24.54 20.49 4.11 z"
     fill="#000000"
     stroke-linecap="round"
     stroke-linejoin="miter"
     id="path4"
     style="fill:#0b1235;fill-opacity:1;stroke-width:0.157983"
     sodipodi:nodetypes="ccccccssscccccccccccccccccccc" />
</svg>
