<svg id="visual" viewBox="0 0 900 600" width="900" height="600" xmlns="http://www.w3.org/2000/svg" xmlns:xlink="http://www.w3.org/1999/xlink" version="1.1"><rect x="0" y="0" width="900" height="600" fill="#0B1235"></rect><path d="M0 457L21.5 446C43 435 86 413 128.8 412.8C171.7 412.7 214.3 434.3 257.2 453C300 471.7 343 487.3 385.8 495.7C428.7 504 471.3 505 514.2 490C557 475 600 444 642.8 434.7C685.7 425.3 728.3 437.7 771.2 437.2C814 436.7 857 423.3 878.5 416.7L900 410L900 601L878.5 601C857 601 814 601 771.2 601C728.3 601 685.7 601 642.8 601C600 601 557 601 514.2 601C471.3 601 428.7 601 385.8 601C343 601 300 601 257.2 601C214.3 601 171.7 601 128.8 601C86 601 43 601 21.5 601L0 601Z" fill="#000" stroke-linecap="round" stroke-linejoin="miter"></path></svg>